<?xml version="1.0" standalone="no"?>
<!DOCTYPE svg PUBLIC "-//W3C//DTD SVG 20010904//EN"
 "http://www.w3.org/TR/2001/REC-SVG-20010904/DTD/svg10.dtd">
<svg version="1.0" xmlns="http://www.w3.org/2000/svg"
 width="16.000000pt" height="16.000000pt" viewBox="0 0 16.000000 16.000000"
 preserveAspectRatio="xMidYMid meet">
<metadata>
Created by potrace 1.11, written by Peter Selinger 2001-2013
</metadata>
<g transform="translate(0.000000,16.000000) scale(0.000800,-0.000800)"
fill="#000000" stroke="none">
<path d="M13943 17745 c-60 -13 -123 -42 -123 -56 0 -4 -3 -14 -6 -22 -8 -23
48 -80 114 -115 33 -18 153 -67 268 -111 566 -214 1028 -419 1379 -611 203
-110 554 -329 628 -391 7 -5 55 -42 107 -81 95 -73 112 -86 224 -187 93 -82
236 -233 302 -317 251 -320 386 -666 387 -994 0 -73 -12 -250 -17 -259 -2 -3
-7 -24 -10 -46 -4 -22 -8 -47 -11 -55 -2 -8 -6 -26 -9 -40 -8 -46 -57 -194
-88 -270 -54 -128 -206 -407 -260 -475 -4 -5 -45 -59 -90 -120 -109 -147 -136
-179 -253 -299 -274 -280 -616 -484 -1066 -636 -109 -37 -366 -106 -430 -115
-24 -4 -46 -8 -50 -10 -6 -5 -282 -52 -349 -60 -112 -14 -117 -14 -152 15 -37
31 -364 253 -388 263 -8 4 -31 17 -51 30 -147 92 -437 242 -624 322 -60 25
-123 53 -140 60 -97 42 -391 142 -545 184 -41 12 -88 25 -105 31 -16 5 -41 11
-55 14 -14 2 -77 16 -140 30 -172 38 -399 76 -540 90 -232 24 -265 26 -510 31
l-215 5 -40 38 c-462 438 -980 783 -1540 1026 -71 31 -139 61 -150 66 -24 11
-191 72 -300 110 -303 106 -794 213 -1118 245 -37 3 -76 8 -86 10 -126 24
-806 24 -986 0 -16 -2 -64 -7 -105 -11 -41 -3 -84 -8 -95 -10 -11 -2 -40 -7
-65 -10 -143 -18 -307 -49 -500 -96 -47 -11 -92 -21 -100 -23 -119 -26 -535
-164 -675 -225 -27 -12 -63 -27 -80 -35 -374 -160 -751 -376 -1065 -609 -62
-46 -239 -184 -256 -201 -7 -5 -36 -30 -65 -55 -208 -177 -446 -419 -628 -641
-146 -177 -203 -252 -295 -389 -57 -85 -57 -85 -231 -199 -142 -92 -335 -232
-435 -315 -223 -185 -389 -341 -582 -547 -45 -48 -55 -60 -148 -169 -293 -343
-569 -777 -768 -1207 -190 -409 -333 -867 -411 -1313 -26 -153 -37 -228 -47
-325 -3 -33 -7 -70 -9 -82 -26 -166 -27 -836 0 -1048 2 -16 7 -57 10 -90 11
-103 13 -118 25 -190 6 -38 13 -83 16 -100 4 -25 18 -102 38 -205 3 -14 15
-65 26 -115 12 -49 23 -99 25 -109 3 -10 9 -33 15 -51 6 -18 12 -41 14 -51 8
-38 78 -262 113 -359 117 -332 256 -623 482 -1009 82 -141 362 -531 456 -636
18 -19 67 -75 110 -125 95 -109 330 -344 440 -440 44 -39 82 -72 85 -75 17
-17 180 -148 265 -212 784 -587 1686 -939 2675 -1043 30 -3 78 -8 105 -11 84
-10 714 -12 805 -3 47 4 119 11 160 14 96 8 315 39 451 64 493 91 980 257
1435 487 166 84 199 103 377 211 48 29 91 53 97 53 5 0 32 -14 61 -30 59 -36
378 -194 459 -229 340 -145 781 -286 1070 -340 30 -6 66 -13 80 -15 14 -3 36
-8 50 -11 14 -3 41 -7 60 -10 19 -2 44 -6 55 -9 11 -2 47 -7 80 -11 33 -4 71
-9 85 -11 14 -2 54 -6 90 -10 36 -3 73 -8 83 -10 50 -9 297 -18 497 -18 198 0
486 11 500 19 3 1 40 6 83 10 43 3 88 8 100 10 12 2 59 9 105 15 116 16 244
39 361 66 36 9 77 18 90 20 13 3 76 19 139 35 681 179 1336 504 1902 943 93
73 226 182 250 206 3 3 30 27 60 54 75 67 201 189 281 273 58 60 91 96 198
218 34 38 190 232 216 269 11 15 35 48 53 73 45 60 222 322 222 329 0 3 14 25
30 49 17 24 30 46 30 48 0 2 23 44 51 93 46 79 184 356 251 504 14 30 58 143
98 250 68 180 78 199 126 250 54 57 61 66 177 194 40 44 77 84 82 90 6 6 53
61 105 121 52 61 104 121 116 135 66 76 100 117 196 235 58 72 153 193 212
270 58 77 110 145 114 150 11 13 129 177 183 253 169 237 435 659 587 927 190
336 413 803 537 1121 25 65 50 128 55 139 25 56 148 411 155 448 2 9 6 21 10
26 5 8 63 196 69 226 2 6 8 30 15 55 7 25 15 52 17 60 2 8 17 67 34 130 17 63
32 122 35 130 18 70 97 424 111 495 19 106 22 122 29 155 8 40 44 262 49 300
2 19 9 73 15 120 20 146 21 153 26 221 3 36 7 75 10 86 26 135 26 964 0 1101
-1 9 -6 44 -9 77 -7 67 -17 140 -22 170 -2 10 -6 35 -9 55 -3 20 -8 47 -10 60
-3 14 -12 60 -20 103 -8 44 -17 82 -19 85 -2 4 -7 23 -10 42 -9 59 -82 308
-125 428 -146 405 -345 754 -626 1092 -91 110 -320 342 -415 421 -36 30 -67
57 -70 60 -3 3 -58 47 -123 97 -346 268 -823 534 -1263 706 -109 43 -210 83
-224 88 -78 33 -293 116 -340 132 -164 55 -696 196 -945 250 -66 15 -131 29
-145 32 -14 3 -36 8 -50 10 -14 3 -36 7 -50 10 -87 16 -193 34 -231 39 -24 3
-54 7 -66 9 -12 3 -53 8 -90 11 -37 4 -72 9 -76 12 -21 12 -385 11 -444 -2z"/>
</g>
</svg>
